<svg xmlns="http://www.w3.org/2000/svg" xmlns:xlink="http://www.w3.org/1999/xlink" width="64" height="64" viewBox="0 0 16.933 16.933"><defs><linearGradient id="c"><stop offset="0" style="stop-color:#000;stop-opacity:.2"/></linearGradient><linearGradient id="b" gradientTransform="scale(.07)"><stop offset="0" style="stop-color:#8c8c8c;stop-opacity:1"/></linearGradient><linearGradient id="a" gradientTransform="matrix(.07 0 0 .07 -53.975 2.117)"><stop offset="0" style="stop-color:#595959;stop-opacity:1"/></linearGradient><linearGradient xlink:href="#a" id="i" x1="25.929" x2="31.75" y1="8.599" y2="8.599" gradientUnits="userSpaceOnUse"/><linearGradient xlink:href="#a" id="g" x1="21.696" x2="30.163" y1="12.965" y2="12.965" gradientUnits="userSpaceOnUse"/><linearGradient xlink:href="#a" id="f" x1="92.075" x2="98.954" y1="8.599" y2="8.599" gradientUnits="userSpaceOnUse"/><linearGradient xlink:href="#a" id="e" x1="23.283" x2="28.575" y1="7.144" y2="7.144" gradientUnits="userSpaceOnUse"/><linearGradient xlink:href="#b" id="j" x1="28.046" x2="31.75" y1="8.463" y2="8.463" gradientUnits="userSpaceOnUse"/><linearGradient xlink:href="#b" id="h" x1="27.781" x2="30.162" y1="12.832" y2="12.832" gradientUnits="userSpaceOnUse"/><linearGradient xlink:href="#c" id="d" x1="4.233" x2="103.049" y1="24.342" y2="24.342" gradientTransform="matrix(1 0 0 1.25 .794 -3.043)" gradientUnits="userSpaceOnUse"/></defs><path d="M5.027 14.817c0 .992 2.646 1.323 4.233 1.323 1.588 0 4.234-.331 4.234-1.323 0-.993-2.779-1.323-4.234-1.323-1.454 0-4.233.33-4.233 1.323z" class="UnoptimicedTransforms" style="font-variation-settings:normal;vector-effect:none;fill:url(#d);fill-opacity:1;stroke:none;stroke-width:1.25861;stroke-linecap:round;stroke-linejoin:round;stroke-miterlimit:4;stroke-dasharray:none;stroke-dashoffset:0;stroke-opacity:1;-inkscape-stroke:none;stop-color:#000" transform="matrix(1.21528 0 0 1 -2.405 0)"/><g style="display:inline" transform="matrix(-1 0 0 1 34.396 0)"><path d="M25.93 1.323v3.44" style="font-variation-settings:normal;opacity:1;fill:#a6a6a6;fill-opacity:1;stroke:#000;stroke-width:1.05833;stroke-linecap:round;stroke-linejoin:round;stroke-miterlimit:4;stroke-dasharray:none;stroke-dashoffset:0;stroke-opacity:1;stop-color:#000;stop-opacity:1"/><ellipse cx="25.929" cy="7.144" rx="2.117" ry="2.91" style="font-variation-settings:normal;display:inline;opacity:1;fill:url(#e);fill-opacity:1;stroke:#000;stroke-width:1.05833;stroke-linecap:round;stroke-linejoin:round;stroke-miterlimit:4;stroke-dasharray:none;stroke-dashoffset:0;stroke-opacity:1;stop-color:#000;stop-opacity:1"/><path d="M94.72 11.112s-2.116-1.058-2.116-3.175c0-1.058 1.001-2.116 2.117-2.116 2.116 0 3.704 1.587 3.704 5.556" style="font-variation-settings:normal;opacity:1;fill:url(#f);fill-opacity:1;stroke:#000;stroke-width:1.05833;stroke-linecap:round;stroke-linejoin:round;stroke-miterlimit:4;stroke-dasharray:none;stroke-dashoffset:0;stroke-opacity:1;stop-color:#000;stop-opacity:1" transform="translate(-72.496)"/><path d="M21.96 11.112s-.264 2.117-.264 3.175c1.587.53 4.233.53 4.233.53s2.646 0 4.234-.53c0-1.058-.265-3.175-.265-3.175-1.323.53-3.969.53-3.969.53s-2.646 0-3.969-.53z" style="display:inline;opacity:1;fill:url(#g);fill-opacity:1;stroke:none;stroke-width:1.05833;stroke-linecap:round;stroke-linejoin:round;stroke-dasharray:none;stroke-opacity:1"/><path d="m29.369 11.112.793 3.175-1.852.265-.529-2.91 1.588-.53" style="font-variation-settings:normal;display:inline;opacity:1;vector-effect:none;fill:url(#h);fill-opacity:1;stroke:none;stroke-width:1.05833;stroke-linecap:butt;stroke-linejoin:round;stroke-miterlimit:2.4;stroke-dasharray:none;stroke-dashoffset:0;stroke-opacity:1;-inkscape-stroke:none;stop-color:#000;stop-opacity:1"/><path d="M29.633 11.112s2.117-1.058 2.117-3.175c0-1.058-1.001-2.116-2.117-2.116-2.116 0-3.704 1.587-3.704 5.556" style="font-variation-settings:normal;display:inline;opacity:1;fill:url(#i);fill-opacity:1;stroke:none;stroke-width:1.05833;stroke-linecap:round;stroke-linejoin:round;stroke-miterlimit:4;stroke-dasharray:none;stroke-dashoffset:0;stroke-opacity:1;stop-color:#000;stop-opacity:1"/><path d="M28.046 6.615c1.852.264 2.91 2.645 1.587 4.233 2.117-.794 2.117-1.588 2.117-2.91 0-3.176-3.704-1.323-3.704-1.323z" style="font-variation-settings:normal;display:inline;opacity:1;fill:url(#j);fill-opacity:1;stroke:none;stroke-width:1.05833;stroke-linecap:round;stroke-linejoin:round;stroke-miterlimit:4;stroke-dasharray:none;stroke-dashoffset:0;stroke-opacity:1;stop-color:#000;stop-opacity:1"/><path d="M29.633 11.112s2.117-1.058 2.117-3.175c0-1.058-1.001-2.116-2.117-2.116-2.116 0-3.704 1.587-3.704 5.556" style="font-variation-settings:normal;display:inline;opacity:1;fill:none;fill-opacity:1;stroke:#000;stroke-width:1.05833;stroke-linecap:round;stroke-linejoin:round;stroke-miterlimit:4;stroke-dasharray:none;stroke-dashoffset:0;stroke-opacity:1;stop-color:#000;stop-opacity:1"/><path d="M22.225 11.112s-.53 2.117-.53 3.175c1.588.53 4.234.53 4.234.53s2.646 0 4.234-.53c0-1.058-.53-3.175-.53-3.175-1.323.53-3.704.53-3.704.53s-2.381 0-3.704-.53z" style="display:inline;opacity:1;fill:none;fill-opacity:1;stroke:#000;stroke-width:1.05833;stroke-linecap:round;stroke-linejoin:round;stroke-dasharray:none;stroke-opacity:1"/><path d="M24.87 2.381h2.117" style="font-variation-settings:normal;opacity:1;fill:#a6a6a6;fill-opacity:1;stroke:#000;stroke-width:1.05833;stroke-linecap:round;stroke-linejoin:round;stroke-miterlimit:4;stroke-dasharray:none;stroke-dashoffset:0;stroke-opacity:1;stop-color:#000;stop-opacity:1"/><path d="M102.394 12.7c-1.323.53-3.969.53-3.969.53s-2.646 0-3.969-.53" style="display:inline;fill:none;fill-opacity:1;stroke:#000;stroke-width:1.05833;stroke-linecap:butt;stroke-linejoin:round;stroke-dasharray:none;stroke-opacity:1" transform="translate(-72.496)"/></g></svg>