<svg xmlns="http://www.w3.org/2000/svg" xmlns:xlink="http://www.w3.org/1999/xlink" width="64" height="64" viewBox="0 0 16.933 16.933"><defs><linearGradient id="c"><stop offset="0" style="stop-color:#000;stop-opacity:.2"/></linearGradient><linearGradient id="b" gradientTransform="scale(.07)"><stop offset="0" style="stop-color:#8c8c8c;stop-opacity:1"/></linearGradient><linearGradient id="a" gradientTransform="matrix(.07 0 0 .07 -53.975 2.117)"><stop offset="0" style="stop-color:#595959;stop-opacity:1"/></linearGradient><linearGradient xlink:href="#a" id="e" x1="4.762" x2="12.171" y1="9.525" y2="9.525" gradientUnits="userSpaceOnUse"/><linearGradient xlink:href="#b" id="f" x1="4.762" x2="8.996" y1="9.611" y2="9.611" gradientUnits="userSpaceOnUse"/><linearGradient xlink:href="#c" id="d" x1="4.233" x2="103.049" y1="24.342" y2="24.342" gradientTransform="matrix(1 0 0 1.25 .794 -3.043)" gradientUnits="userSpaceOnUse"/></defs><path d="M5.027 14.817c0 .992 2.646 1.323 4.233 1.323 1.588 0 4.234-.331 4.234-1.323 0-.993-2.779-1.323-4.234-1.323-1.454 0-4.233.33-4.233 1.323z" class="UnoptimicedTransforms" style="font-variation-settings:normal;vector-effect:none;fill:url(#d);fill-opacity:1;stroke:none;stroke-width:1.25861;stroke-linecap:round;stroke-linejoin:round;stroke-miterlimit:4;stroke-dasharray:none;stroke-dashoffset:0;stroke-opacity:1;-inkscape-stroke:none;stop-color:#000" transform="matrix(1.09375 0 0 1 -1.265 0)"/><g style="display:inline"><path d="M4.762 14.287c1.588.53 3.705.53 3.705.53s2.116 0 3.704-.53c0-2.116-.794-2.645-2.381-4.233 1.587-1.587.793-2.646-.265-3.704.794-.794 0-2.117-1.058-2.117-1.059 0-1.852 1.323-1.059 2.117-1.058 1.058-1.852 2.117-.264 3.704-1.588 1.588-2.382 2.117-2.382 4.233z" style="display:inline;opacity:1;fill:url(#e);fill-opacity:1;stroke:none;stroke-width:1.05833;stroke-linecap:round;stroke-linejoin:round;stroke-dasharray:none;stroke-opacity:1"/><path d="m4.762 14.287 1.853.53c0-2.117 1.587-3.97 1.322-4.763-.264-.794-.264-1.058-.264-1.587 0-1.059.794-1.323.53-2.117-.266-.794 0-1.588.793-1.852-1.323-.53-1.644 1.366-1.852 1.852-.339.79-1.059 2.381 0 3.704-1.852 1.588-2.382 3.722-2.382 4.233z" style="display:inline;fill:url(#f);fill-opacity:1;stroke:none;stroke-width:.79375;stroke-linejoin:round"/><path d="M4.762 14.287c1.588.53 3.705.53 3.705.53s2.116 0 3.704-.53c0-2.116-.794-2.645-2.381-4.233 1.587-1.587.793-2.646-.265-3.704.794-.794 0-2.117-1.058-2.117-1.059 0-1.852 1.323-1.059 2.117-1.058 1.058-1.852 2.117-.264 3.704-1.588 1.588-2.382 2.117-2.382 4.233z" style="display:inline;opacity:1;fill:none;fill-opacity:1;stroke:#000;stroke-width:1.05833;stroke-linecap:round;stroke-linejoin:round;stroke-dasharray:none;stroke-opacity:1"/></g></svg>