<svg xmlns="http://www.w3.org/2000/svg" xmlns:xlink="http://www.w3.org/1999/xlink" width="64" height="64" viewBox="0 0 16.933 16.933"><defs><linearGradient id="c"><stop offset="0" style="stop-color:#000;stop-opacity:.2"/></linearGradient><linearGradient id="b" gradientTransform="scale(.07)"><stop offset="0" style="stop-color:#8c8c8c;stop-opacity:1"/></linearGradient><linearGradient id="a" gradientTransform="matrix(.07 0 0 .07 -53.975 2.117)"><stop offset="0" style="stop-color:#595959;stop-opacity:1"/></linearGradient><linearGradient xlink:href="#a" id="k" x1="76.2" x2="84.667" y1="12.965" y2="12.965" gradientUnits="userSpaceOnUse"/><linearGradient xlink:href="#a" id="e" x1="20.637" x2="31.221" y1="8.202" y2="8.202" gradientUnits="userSpaceOnUse"/><linearGradient xlink:href="#b" id="l" x1="82.285" x2="84.667" y1="12.832" y2="12.832" gradientUnits="userSpaceOnUse"/><linearGradient xlink:href="#b" id="j" x1="19.05" x2="22.225" y1="5.821" y2="5.821" gradientUnits="userSpaceOnUse"/><linearGradient xlink:href="#b" id="i" x1="29.633" x2="32.808" y1="5.821" y2="5.821" gradientUnits="userSpaceOnUse"/><linearGradient xlink:href="#b" id="h" x1="26.458" x2="29.633" y1="3.44" y2="3.44" gradientUnits="userSpaceOnUse"/><linearGradient xlink:href="#b" id="g" x1="22.225" x2="25.4" y1="3.44" y2="3.44" gradientUnits="userSpaceOnUse"/><linearGradient xlink:href="#b" id="f" x1="26.987" x2="30.427" y1="9.79" y2="9.79" gradientUnits="userSpaceOnUse"/><linearGradient xlink:href="#c" id="d" x1="4.233" x2="103.049" y1="24.342" y2="24.342" gradientTransform="matrix(1 0 0 1.25 .794 -3.043)" gradientUnits="userSpaceOnUse"/></defs><path d="M5.027 14.817c0 .992 2.646 1.323 4.233 1.323 1.588 0 4.234-.331 4.234-1.323 0-.993-2.779-1.323-4.234-1.323-1.454 0-4.233.33-4.233 1.323z" class="UnoptimicedTransforms" style="font-variation-settings:normal;vector-effect:none;fill:url(#d);fill-opacity:1;stroke:none;stroke-width:1.25861;stroke-linecap:round;stroke-linejoin:round;stroke-miterlimit:4;stroke-dasharray:none;stroke-dashoffset:0;stroke-opacity:1;-inkscape-stroke:none;stop-color:#000" transform="matrix(1.21528 0 0 1 -2.405 0)"/><g style="display:inline" transform="matrix(-1 0 0 1 34.396 0)"><path d="M22.754 12.965 20.637 5.82c3.175 2.91 3.175 1.323 3.175-2.381 2.117 2.645 2.117 2.645 4.234 0 0 3.704-.013 5.31 3.175 2.38l-2.117 7.145" style="font-variation-settings:normal;display:inline;opacity:1;fill:url(#e);fill-opacity:1;stroke:none;stroke-width:1.05833;stroke-linecap:butt;stroke-linejoin:round;stroke-miterlimit:4;stroke-dasharray:none;stroke-dashoffset:0;stroke-opacity:1;stop-color:#000;stop-opacity:1"/><path d="m29.104 12.965-2.117.264s1.059-2.646 1.059-6.879c.794 1.058 2.381 1.058 2.381 1.058s-1.587 3.704-1.323 5.557z" style="font-variation-settings:normal;display:inline;opacity:1;fill:url(#f);fill-opacity:1;stroke:none;stroke-width:1.05833;stroke-linecap:butt;stroke-linejoin:round;stroke-miterlimit:2.4;stroke-dasharray:none;stroke-dashoffset:0;stroke-opacity:1;stop-color:#000;stop-opacity:1"/><path d="m22.225 11.112-1.588-5.291c3.175 2.91 3.175 1.323 3.175-2.381 2.117 3.44 2.117 3.44 4.234 0 0 3.704-.013 5.31 3.175 2.38l-1.588 5.292" style="font-variation-settings:normal;display:inline;opacity:1;fill:none;fill-opacity:1;stroke:#000;stroke-width:1.05833;stroke-linecap:butt;stroke-linejoin:round;stroke-miterlimit:4;stroke-dasharray:none;stroke-dashoffset:0;stroke-opacity:1;stop-color:#000;stop-opacity:1"/><circle cx="23.812" cy="3.44" r="1.058" style="font-variation-settings:normal;display:inline;fill:url(#g);fill-opacity:1;stroke:#000;stroke-width:1.05833;stroke-linecap:butt;stroke-linejoin:round;stroke-miterlimit:4;stroke-dasharray:none;stroke-dashoffset:0;stroke-opacity:1;stop-color:#000"/><circle cx="28.046" cy="3.44" r="1.058" style="font-variation-settings:normal;display:inline;fill:url(#h);fill-opacity:1;stroke:#000;stroke-width:1.05833;stroke-linecap:butt;stroke-linejoin:round;stroke-miterlimit:4;stroke-dasharray:none;stroke-dashoffset:0;stroke-opacity:1;stop-color:#000"/><circle cx="31.221" cy="5.821" r="1.058" style="font-variation-settings:normal;display:inline;fill:url(#i);fill-opacity:1;stroke:#000;stroke-width:1.05833;stroke-linecap:butt;stroke-linejoin:round;stroke-miterlimit:4;stroke-dasharray:none;stroke-dashoffset:0;stroke-opacity:1;stop-color:#000"/><circle cx="20.637" cy="5.821" r="1.058" style="font-variation-settings:normal;display:inline;fill:url(#j);fill-opacity:1;stroke:#000;stroke-width:1.05833;stroke-linecap:butt;stroke-linejoin:round;stroke-miterlimit:4;stroke-dasharray:none;stroke-dashoffset:0;stroke-opacity:1;stop-color:#000"/><path d="M76.465 11.112s-.265 2.117-.265 3.175c1.588.53 4.233.53 4.233.53s2.646 0 4.234-.53c0-1.058-.265-3.175-.265-3.175-1.323.53-3.969.53-3.969.53s-2.645 0-3.968-.53z" style="display:inline;fill:url(#k);fill-opacity:1;stroke:none;stroke-width:1.05833;stroke-linecap:round;stroke-linejoin:round;stroke-dasharray:none;stroke-opacity:1" transform="translate(-54.504)"/><path d="m83.873 11.112.794 3.175-1.852.265-.53-2.91 1.588-.53" style="font-variation-settings:normal;display:inline;fill:url(#l);fill-opacity:1;stroke:none;stroke-width:1.05833;stroke-linecap:butt;stroke-linejoin:round;stroke-miterlimit:2.4;stroke-dasharray:none;stroke-dashoffset:0;stroke-opacity:1;stop-color:#000" transform="translate(-54.504)"/><path d="M76.73 11.112s-.53 2.117-.53 3.175c1.588.53 4.233.53 4.233.53s2.646 0 4.234-.53c0-1.058-.53-3.175-.53-3.175-1.322.53-3.704.53-3.704.53s-2.38 0-3.704-.53z" style="display:inline;fill:none;fill-opacity:1;stroke:#000;stroke-width:1.05833;stroke-linecap:round;stroke-linejoin:round;stroke-dasharray:none;stroke-opacity:1" transform="translate(-54.504)"/><path d="M84.402 12.7c-1.323.53-3.969.53-3.969.53s-2.646 0-3.968-.53" style="display:inline;fill:none;fill-opacity:1;stroke:#000;stroke-width:1.05833;stroke-linecap:butt;stroke-linejoin:round;stroke-dasharray:none;stroke-opacity:1" transform="translate(-54.504)"/></g></svg>