<svg xmlns="http://www.w3.org/2000/svg" xmlns:xlink="http://www.w3.org/1999/xlink" width="64" height="64" viewBox="0 0 16.933 16.933"><defs><linearGradient id="c"><stop offset="0" style="stop-color:#000;stop-opacity:.2"/></linearGradient><linearGradient id="b" gradientTransform="scale(.07)"><stop offset="0" style="stop-color:#8c8c8c;stop-opacity:1"/></linearGradient><linearGradient id="a" gradientTransform="matrix(.07 0 0 .07 -53.975 2.117)"><stop offset="0" style="stop-color:#595959;stop-opacity:1"/></linearGradient><linearGradient xlink:href="#a" id="i" x1="4.498" x2="12.435" y1="5.806" y2="5.806" gradientUnits="userSpaceOnUse"/><linearGradient xlink:href="#a" id="g" x1="4.233" x2="12.7" y1="13.758" y2="13.758" gradientUnits="userSpaceOnUse"/><linearGradient xlink:href="#a" id="e" x1="41.275" x2="47.625" y1="9.79" y2="9.79" gradientUnits="userSpaceOnUse"/><linearGradient xlink:href="#b" id="j" x1="10.848" x2="12.171" y1="6.085" y2="6.085" gradientUnits="userSpaceOnUse"/><linearGradient xlink:href="#b" id="h" x1="10.583" x2="12.7" y1="13.626" y2="13.626" gradientUnits="userSpaceOnUse"/><linearGradient xlink:href="#b" id="f" x1="9.525" x2="11.642" y1="9.922" y2="9.922" gradientUnits="userSpaceOnUse"/><linearGradient xlink:href="#c" id="d" x1="4.233" x2="103.049" y1="24.342" y2="24.342" gradientTransform="matrix(1 0 0 1.25 .794 -3.043)" gradientUnits="userSpaceOnUse"/></defs><path d="M5.027 14.817c0 .992 2.646 1.323 4.233 1.323 1.588 0 4.234-.331 4.234-1.323 0-.993-2.779-1.323-4.234-1.323-1.454 0-4.233.33-4.233 1.323z" class="UnoptimicedTransforms" style="font-variation-settings:normal;vector-effect:none;fill:url(#d);fill-opacity:1;stroke:none;stroke-width:1.25861;stroke-linecap:round;stroke-linejoin:round;stroke-miterlimit:4;stroke-dasharray:none;stroke-dashoffset:0;stroke-opacity:1;-inkscape-stroke:none;stop-color:#000" transform="matrix(1.21528 0 0 1 -2.405 0)"/><g style="display:inline"><path d="m41.275 12.965.53-6.35h5.29l.53 6.35" style="font-variation-settings:normal;display:inline;opacity:1;vector-effect:none;fill:url(#e);fill-opacity:1;stroke:none;stroke-width:1.05833;stroke-linecap:butt;stroke-linejoin:round;stroke-miterlimit:2.4;stroke-dasharray:none;stroke-dashoffset:0;stroke-opacity:1;-inkscape-stroke:none;stop-color:#000;stop-opacity:1" transform="matrix(-1 0 0 1 52.917 0)"/><path d="m9.525 6.88.53 6.35 1.587-.265-.53-6.35z" style="font-variation-settings:normal;display:inline;opacity:1;vector-effect:none;fill:url(#f);fill-opacity:1;stroke:none;stroke-width:1.05833;stroke-linecap:butt;stroke-linejoin:round;stroke-miterlimit:2.4;stroke-dasharray:none;stroke-dashoffset:0;stroke-opacity:1;-inkscape-stroke:none;stop-color:#000;stop-opacity:1" transform="matrix(-1 0 0 1 16.933 0)"/><path d="m41.275 12.7.53-5.027m5.29 0 .53 5.027" style="font-variation-settings:normal;display:inline;opacity:1;vector-effect:none;fill:none;fill-opacity:1;stroke:#000;stroke-width:1.05833;stroke-linecap:butt;stroke-linejoin:round;stroke-miterlimit:2.4;stroke-dasharray:none;stroke-dashoffset:0;stroke-opacity:1;-inkscape-stroke:none;stop-color:#000;stop-opacity:1" transform="matrix(-1 0 0 1 52.917 0)"/><path d="M4.498 12.7s-.265.53-.265 1.587c1.588.53 4.234.53 4.234.53s2.645 0 4.233-.53c0-1.058-.265-1.587-.265-1.587-1.323.53-3.968.53-3.968.53s-2.646 0-3.97-.53z" style="display:inline;opacity:1;fill:url(#g);fill-opacity:1;stroke:none;stroke-width:1.05833;stroke-linecap:round;stroke-linejoin:round;stroke-dasharray:none;stroke-opacity:1" transform="matrix(-1 0 0 1 16.933 0)"/><path d="m12.435 12.7.265 1.587-1.852.265-.265-1.323 1.852-.529" style="font-variation-settings:normal;display:inline;opacity:1;vector-effect:none;fill:url(#h);fill-opacity:1;stroke:none;stroke-width:1.05833;stroke-linecap:butt;stroke-linejoin:round;stroke-miterlimit:2.4;stroke-dasharray:none;stroke-dashoffset:0;stroke-opacity:1;-inkscape-stroke:none;stop-color:#000;stop-opacity:1" transform="matrix(-1 0 0 1 16.933 0)"/><path d="M4.498 12.7s-.265.53-.265 1.587c1.588.53 4.234.53 4.234.53s2.645 0 4.233-.53c0-1.058-.265-1.587-.265-1.587-1.323.53-3.968.53-3.968.53s-2.646 0-3.97-.53z" style="display:inline;opacity:1;fill:none;fill-opacity:1;stroke:#000;stroke-width:1.05833;stroke-linecap:round;stroke-linejoin:round;stroke-dasharray:none;stroke-opacity:1" transform="matrix(-1 0 0 1 16.933 0)"/><path d="M5.292 3.969s-.794 2.381-.794 3.44c1.587.528 3.969 0 3.969 0s2.38.528 3.968 0c0-1.059-.529-3.44-.529-3.44-1.323.529-3.44.264-3.44.264s-1.851.265-3.174-.264z" style="display:inline;fill:url(#i);fill-opacity:1;stroke:none;stroke-width:1.05833;stroke-linecap:round;stroke-linejoin:round;stroke-dasharray:none;stroke-opacity:1" transform="matrix(-1 0 0 1 16.933 0)"/><path d="m11.906 5.292.265 2.116-.794.794-.53-4.233h.795" style="font-variation-settings:normal;display:inline;vector-effect:none;fill:url(#j);fill-opacity:1;stroke:none;stroke-width:1.05833;stroke-linecap:butt;stroke-linejoin:round;stroke-miterlimit:2.4;stroke-dasharray:none;stroke-dashoffset:0;stroke-opacity:1;-inkscape-stroke:none;stop-color:#000" transform="matrix(-1 0 0 1 16.933 0)"/><path d="M4.763 3.969s-.265 2.381-.265 3.44c1.323.528 3.969.528 3.969.528s2.645 0 3.968-.529c0-1.058-.264-3.44-.264-3.44H4.763z" style="display:inline;fill:none;fill-opacity:1;stroke:#000;stroke-width:1.05833;stroke-linecap:round;stroke-linejoin:round;stroke-dasharray:none;stroke-opacity:1" transform="matrix(-1 0 0 1 16.933 0)"/><path d="m7.144 3.704-.147 2.381m2.634-2.38.147 2.38" class="UnoptimicedTransforms" style="font-variation-settings:normal;opacity:1;fill:none;fill-opacity:1;stroke:#000;stroke-width:1.05833;stroke-linecap:butt;stroke-linejoin:round;stroke-miterlimit:4;stroke-dasharray:none;stroke-dashoffset:0;stroke-opacity:1;stop-color:#000;stop-opacity:1" transform="matrix(-1 0 0 1 16.854 .007)"/></g></svg>