<svg xmlns="http://www.w3.org/2000/svg" xmlns:xlink="http://www.w3.org/1999/xlink" width="64" height="64" viewBox="0 0 16.933 16.933"><defs><linearGradient id="a"><stop offset="0" style="stop-color:#fff;stop-opacity:1"/></linearGradient><linearGradient id="b" gradientTransform="translate(0 2.117)"><stop offset="0" style="stop-color:#ccc;stop-opacity:1"/></linearGradient><linearGradient id="c"><stop offset="0" style="stop-color:#000;stop-opacity:.2"/></linearGradient><linearGradient xlink:href="#a" id="i" x1="6.879" x2="10.054" y1="2.91" y2="2.91" gradientUnits="userSpaceOnUse"/><linearGradient xlink:href="#a" id="g" x1="4.762" x2="12.171" y1="13.758" y2="13.758" gradientUnits="userSpaceOnUse"/><linearGradient xlink:href="#a" id="e" x1="40.766" x2="48.134" y1="8.202" y2="8.202" gradientUnits="userSpaceOnUse"/><linearGradient xlink:href="#b" id="h" gradientTransform="translate(0 2.117)" gradientUnits="userSpaceOnUse"/><linearGradient xlink:href="#b" id="f" gradientTransform="translate(0 2.117)" gradientUnits="userSpaceOnUse"/><linearGradient xlink:href="#c" id="d" x1="4.233" x2="103.049" y1="24.342" y2="24.342" gradientTransform="matrix(1 0 0 1.25 .794 -3.043)" gradientUnits="userSpaceOnUse"/></defs><path d="M5.027 14.817c0 .992 2.646 1.323 4.233 1.323 1.588 0 4.234-.331 4.234-1.323 0-.993-2.779-1.323-4.234-1.323-1.454 0-4.233.33-4.233 1.323z" class="UnoptimicedTransforms" style="font-variation-settings:normal;vector-effect:none;fill:url(#d);fill-opacity:1;stroke:none;stroke-width:1.25861;stroke-linecap:round;stroke-linejoin:round;stroke-miterlimit:4;stroke-dasharray:none;stroke-dashoffset:0;stroke-opacity:1;-inkscape-stroke:none;stop-color:#000" transform="matrix(1.09375 0 0 1 -1.265 0)"/><g style="display:inline"><path d="M42.333 12.965C37.835 7.408 44.45 3.44 44.45 3.44s6.615 3.968 2.117 9.525" style="font-variation-settings:normal;display:inline;opacity:1;vector-effect:none;fill:url(#e);fill-opacity:1;stroke:none;stroke-width:1.05833;stroke-linecap:butt;stroke-linejoin:round;stroke-miterlimit:2.4;stroke-dasharray:none;stroke-dashoffset:0;stroke-opacity:1;-inkscape-stroke:none;stop-color:#000;stop-opacity:1" transform="translate(-35.983)"/><path d="M8.202 4.233c2.117.794 3.704 6.615-.265 8.996l2.646-.264c4.234-4.498.53-8.467-2.116-8.996Z" style="font-variation-settings:normal;display:inline;opacity:1;vector-effect:none;fill:url(#f);fill-opacity:1;stroke:none;stroke-width:1.05833;stroke-linecap:butt;stroke-linejoin:round;stroke-miterlimit:2.4;stroke-dasharray:none;stroke-dashoffset:0;stroke-opacity:1;-inkscape-stroke:none;stop-color:#000;stop-opacity:1"/><path d="M42.333 12.965c-4.498-6.086 2.117-8.996 2.117-8.996s6.615 2.91 2.117 8.996" style="font-variation-settings:normal;opacity:1;vector-effect:none;fill:none;fill-opacity:1;stroke:#000;stroke-width:1.05833;stroke-linecap:butt;stroke-linejoin:round;stroke-miterlimit:2.4;stroke-dasharray:none;stroke-dashoffset:0;stroke-opacity:1;-inkscape-stroke:none;stop-color:#000;stop-opacity:1" transform="translate(-35.983)"/><path d="M5.027 12.7s-.265.53-.265 1.587c1.588.53 3.705.53 3.705.53s2.116 0 3.704-.53c0-1.058-.265-1.587-.265-1.587-1.323.53-3.44.53-3.44.53s-2.116 0-3.439-.53z" style="display:inline;opacity:1;fill:url(#g);fill-opacity:1;stroke:none;stroke-width:1.05833;stroke-linecap:round;stroke-linejoin:round;stroke-dasharray:none;stroke-opacity:1"/><path d="m11.906 12.7.265 1.587-1.852.265-.265-1.323 1.852-.529" style="font-variation-settings:normal;opacity:1;vector-effect:none;fill:url(#h);fill-opacity:1;stroke:none;stroke-width:1.05833;stroke-linecap:butt;stroke-linejoin:round;stroke-miterlimit:2.4;stroke-dasharray:none;stroke-dashoffset:0;stroke-opacity:1;-inkscape-stroke:none;stop-color:#000;stop-opacity:1"/><path d="M5.027 12.7s-.265.53-.265 1.587c1.588.53 3.705.53 3.705.53s2.116 0 3.704-.53c0-1.058-.265-1.587-.265-1.587-1.323.53-3.44.53-3.44.53s-2.116 0-3.439-.53z" style="display:inline;opacity:1;fill:none;fill-opacity:1;stroke:#000;stroke-width:1.05833;stroke-linecap:round;stroke-linejoin:round;stroke-dasharray:none;stroke-opacity:1"/><circle cx="8.467" cy="2.91" r="1.058" style="font-variation-settings:normal;opacity:1;vector-effect:none;fill:url(#i);fill-opacity:1;stroke:#000;stroke-width:1.05833;stroke-linecap:butt;stroke-linejoin:round;stroke-miterlimit:4;stroke-dasharray:none;stroke-dashoffset:0;stroke-opacity:1;-inkscape-stroke:none;stop-color:#000;stop-opacity:1"/><path d="M8.467 3.969c3.175 1.587 1.058 3.704 0 4.762" style="font-variation-settings:normal;opacity:1;fill:none;fill-opacity:1;stroke:#000;stroke-width:1.05833;stroke-linecap:round;stroke-linejoin:round;stroke-miterlimit:2.4;stroke-dasharray:none;stroke-dashoffset:0;stroke-opacity:1;stop-color:#000;stop-opacity:1"/></g></svg>