<svg xmlns="http://www.w3.org/2000/svg" xmlns:xlink="http://www.w3.org/1999/xlink" width="64" height="64" viewBox="0 0 16.933 16.933"><defs><linearGradient id="a"><stop offset="0" style="stop-color:#fff;stop-opacity:1"/></linearGradient><linearGradient id="b" gradientTransform="translate(0 2.117)"><stop offset="0" style="stop-color:#ccc;stop-opacity:1"/></linearGradient><linearGradient id="c"><stop offset="0" style="stop-color:#000;stop-opacity:.2"/></linearGradient><linearGradient xlink:href="#a" id="e" x1="4.085" x2="13.229" y1="8.864" y2="8.864" gradientUnits="userSpaceOnUse"/><linearGradient xlink:href="#b" id="f" gradientTransform="translate(0 2.117)" gradientUnits="userSpaceOnUse"/><linearGradient xlink:href="#c" id="d" x1="4.233" x2="103.049" y1="24.342" y2="24.342" gradientTransform="matrix(1 0 0 1.25 .794 -3.043)" gradientUnits="userSpaceOnUse"/></defs><path d="M5.027 14.817c0 .992 2.646 1.323 4.233 1.323 1.588 0 4.234-.331 4.234-1.323 0-.993-2.779-1.323-4.234-1.323-1.454 0-4.233.33-4.233 1.323z" class="UnoptimicedTransforms" style="font-variation-settings:normal;vector-effect:none;fill:url(#d);fill-opacity:1;stroke:none;stroke-width:1.25861;stroke-linecap:round;stroke-linejoin:round;stroke-miterlimit:4;stroke-dasharray:none;stroke-dashoffset:0;stroke-opacity:1;-inkscape-stroke:none;stop-color:#000" transform="matrix(1.09375 0 0 1 -1.265 0)"/><g style="display:inline;opacity:1"><path d="M4.762 14.287c1.588.53 3.705.53 3.705.53s2.116 0 3.704-.53c-.794-2.38 1.058-3.968 1.058-6.35 0-3.968-4.762-5.027-4.762-5.027v1.323s-3.97 2.91-4.234 3.175c-.264.265-.118.557 0 .794.265.53.53.794.794 1.058.265.265.53.265.794 0 .264-.264.794-.529 1.058-.529.265 0 1.058.265 1.323.265.265 0 1.323-.265 1.852-.794-1.323 1.323-2.117 1.323-2.91 1.852-.794.53-2.382 2.117-2.382 4.233Z" style="display:inline;opacity:1;fill:url(#e);fill-opacity:1;stroke:none;stroke-width:1.05833;stroke-linecap:round;stroke-linejoin:round;stroke-dasharray:none;stroke-opacity:1"/><path d="m-6.085 12.7.264 1.587-2.381.53c-.53-3.97 2.91-4.234 2.91-6.88.794.794-.793 4.763-.793 4.763z" style="font-variation-settings:normal;display:inline;opacity:1;vector-effect:none;fill:url(#f);fill-opacity:1;stroke:none;stroke-width:1.05833;stroke-linecap:butt;stroke-linejoin:round;stroke-miterlimit:2.4;stroke-dasharray:none;stroke-dashoffset:0;stroke-opacity:1;-inkscape-stroke:none;stop-color:#000;stop-opacity:1" transform="translate(17.992)"/><path d="M4.762 14.287c1.588.53 3.705.53 3.705.53s2.116 0 3.704-.53c-.794-2.38 1.058-3.968 1.058-6.35 0-3.968-4.762-5.027-4.762-5.027v1.323s-3.97 2.91-4.234 3.175c-.264.265-.118.557 0 .794.265.53.53.794.794 1.058.265.265.53.265.794 0 .264-.264.794-.529 1.058-.529.265 0 1.058.265 1.323.265.265 0 1.323-.265 1.852-.794-1.323 1.323-2.117 1.323-2.91 1.852-.794.53-2.382 2.117-2.382 4.233Z" style="display:inline;opacity:1;fill:none;fill-opacity:1;stroke:#000;stroke-width:1.05833;stroke-linecap:round;stroke-linejoin:round;stroke-dasharray:none;stroke-opacity:1"/><circle cx="8.731" cy="6.085" r=".529" style="display:inline;opacity:1;fill:#000;fill-opacity:1;stroke:none;stroke-width:1.05833;stroke-linecap:round;stroke-linejoin:round;stroke-dasharray:none;stroke-opacity:1"/><path d="M11.906 12.7c-1.323.53-3.44.53-3.44.53s-2.116 0-3.439-.53" style="display:inline;opacity:1;fill:none;fill-opacity:1;stroke:#000;stroke-width:1.05833;stroke-linecap:butt;stroke-linejoin:round;stroke-dasharray:none;stroke-opacity:1"/></g></svg>