<svg xmlns="http://www.w3.org/2000/svg" xmlns:xlink="http://www.w3.org/1999/xlink" width="64" height="64" viewBox="0 0 16.933 16.933"><defs><linearGradient id="b"><stop offset="0" style="stop-color:#fff;stop-opacity:1"/></linearGradient><linearGradient id="c" gradientTransform="translate(0 2.117)"><stop offset="0" style="stop-color:#ccc;stop-opacity:1"/></linearGradient><linearGradient id="a"><stop offset="0" style="stop-color:#000;stop-opacity:.2"/></linearGradient><linearGradient xlink:href="#a" id="d" x1="4.233" x2="103.049" y1="24.342" y2="24.342" gradientTransform="matrix(1 0 0 1.25 .794 -3.043)" gradientUnits="userSpaceOnUse"/><linearGradient xlink:href="#b" id="e" x1="4.762" x2="12.171" y1="9.525" y2="9.525" gradientUnits="userSpaceOnUse"/><linearGradient xlink:href="#c" id="f" gradientTransform="translate(0 2.117)" gradientUnits="userSpaceOnUse"/></defs><path d="M5.027 14.817c0 .992 2.646 1.323 4.233 1.323 1.588 0 4.234-.331 4.234-1.323 0-.993-2.779-1.323-4.234-1.323-1.454 0-4.233.33-4.233 1.323z" class="UnoptimicedTransforms" style="font-variation-settings:normal;opacity:1;vector-effect:none;fill:url(#d);fill-opacity:1;stroke:none;stroke-width:1.25861;stroke-linecap:round;stroke-linejoin:round;stroke-miterlimit:4;stroke-dasharray:none;stroke-dashoffset:0;stroke-opacity:1;-inkscape-stroke:none;stop-color:#000;stop-opacity:1" transform="matrix(1.09375 0 0 1 -1.265 0)"/><g style="display:inline;opacity:1"><path d="M4.762 14.287c1.588.53 3.705.53 3.705.53s2.116 0 3.704-.53c0-2.116-.794-2.645-2.381-4.233 1.587-1.587.793-2.646-.265-3.704.794-.794 0-2.117-1.058-2.117-1.059 0-1.852 1.323-1.059 2.117-1.058 1.058-1.852 2.117-.264 3.704-1.588 1.588-2.382 2.117-2.382 4.233z" style="display:inline;opacity:1;fill:url(#e);fill-opacity:1;stroke:none;stroke-width:1.05833;stroke-linecap:round;stroke-linejoin:round;stroke-dasharray:none;stroke-opacity:1"/><path d="m12.17 14.287-1.851.53c0-.836-.248-1.631-.531-2.335-.434-1.08-.952-1.948-.792-2.428.264-.794.264-1.058.264-1.587 0-1.059-.793-1.323-.529-2.117.265-.794 0-1.588-.794-1.852C9.26 3.968 9.581 5.864 9.79 6.35c.338.79 1.058 2.381 0 3.704 1.852 1.588 2.38 3.722 2.38 4.233z" style="display:inline;fill:url(#f);fill-opacity:1;stroke:none;stroke-width:.79375;stroke-linejoin:round"/><path d="M4.762 14.287c1.588.53 3.705.53 3.705.53s2.116 0 3.704-.53c0-2.116-.794-2.645-2.381-4.233 1.587-1.587.793-2.646-.265-3.704.794-.794 0-2.117-1.058-2.117-1.059 0-1.852 1.323-1.059 2.117-1.058 1.058-1.852 2.117-.264 3.704-1.588 1.588-2.382 2.117-2.382 4.233z" style="display:inline;opacity:1;fill:none;fill-opacity:1;stroke:#000;stroke-width:1.05833;stroke-linecap:round;stroke-linejoin:round;stroke-dasharray:none;stroke-opacity:1"/></g></svg>